{
  "accessors": [
    {
      "bufferView": 2,
      "componentType": 5126,
      "count": 65532,
      "max": [
        100.45978546142578,
        2.6517739295959473,
        135.4082794189453
      ],
      "min": [
        -60.274295806884766,
        -111.29875946044922,
        -85.57235717773438
      ],
      "type": "VEC3"
    },
    {
      "bufferView": 2,
      "byteOffset": 786384,
      "componentType": 5126,
      "count": 65532,
      "max": [
        0.9999545812606812,
        0.9999990463256836,
        0.9999545812606812
      ],
      "min": [
        -0.999973475933075,
        -0.9999663829803467,
        -0.999999463558197
      ],
      "type": "VEC3"
    },
    {
      "bufferView": 1,
      "componentType": 5126,
      "count": 65532,
      "max": [
        0.9985010027885437,
        0.8526790142059326
      ],
      "min": [
        0.0007440000190399587,
        0.0007440000190399587
      ],
      "type": "VEC2"
    },
    {
      "bufferView": 0,
      "componentType": 5125,
      "count": 230094,
      "type": "SCALAR"
    },
    {
      "bufferView": 2,
      "byteOffset": 1572768,
      "componentType": 5126,
      "count": 65532,
      "max": [
        108.76175689697266,
        2.7519919872283936,
        144.7188720703125
      ],
      "min": [
        -62.47333908081055,
        -134.0515899658203,
        -84.23772430419922
      ],
      "type": "VEC3"
    },
    {
      "bufferView": 2,
      "byteOffset": 2359152,
      "componentType": 5126,
      "count": 65532,
      "max": [
        0.9999886155128479,
        0.9999998807907104,
        0.9999797344207764
      ],
      "min": [
        -0.9998555779457092,
        -0.9995383620262146,
        -0.9998881816864014
      ],
      "type": "VEC3"
    },
    {
      "bufferView": 1,
      "byteOffset": 524256,
      "componentType": 5126,
      "count": 65532,
      "max": [
        0.9984660148620605,
        0.9047620296478271
      ],
      "min": [
        0.0014880000380799174,
        0.0008580000139772892
      ],
      "type": "VEC2"
    },
    {
      "bufferView": 0,
      "byteOffset": 920376,
      "componentType": 5125,
      "count": 322275,
      "type": "SCALAR"
    },
    {
      "bufferView": 2,
      "byteOffset": 3145536,
      "componentType": 5126,
      "count": 65532,
      "max": [
        108.29304504394531,
        2.8158490657806396,
        147.01023864746094
      ],
      "min": [
        -71.66130828857422,
        -147.6428680419922,
        -105.80999755859375
      ],
      "type": "VEC3"
    },
    {
      "bufferView": 2,
      "byteOffset": 3931920,
      "componentType": 5126,
      "count": 65532,
      "max": [
        0.9998001456260681,
        0.9999998211860657,
        0.9999938011169434
      ],
      "min": [
        -0.9999415278434753,
        -0.9999645352363586,
        -0.9998440146446228
      ],
      "type": "VEC3"
    },
    {
      "bufferView": 1,
      "byteOffset": 1048512,
      "componentType": 5126,
      "count": 65532,
      "max": [
        0.9984779953956604,
        0.9992560148239136
      ],
      "min": [
        0.0044639999978244305,
        0.001231999951414764
      ],
      "type": "VEC2"
    },
    {
      "bufferView": 0,
      "byteOffset": 2209476,
      "componentType": 5125,
      "count": 358728,
      "type": "SCALAR"
    },
    {
      "bufferView": 2,
      "byteOffset": 4718304,
      "componentType": 5126,
      "count": 65532,
      "max": [
        108.92611694335938,
        2.030177116394043,
        133.74205017089844
      ],
      "min": [
        -59.14104461669922,
        -158.30494689941406,
        -102.05780029296875
      ],
      "type": "VEC3"
    },
    {
      "bufferView": 2,
      "byteOffset": 5504688,
      "componentType": 5126,
      "count": 65532,
      "max": [
        0.9999644160270691,
        0.9999999403953552,
        0.9999828338623047
      ],
      "min": [
        -0.9998364448547363,
        -0.999994695186615,
        -0.994586706161499
      ],
      "type": "VEC3"
    },
    {
      "bufferView": 1,
      "byteOffset": 1572768,
      "componentType": 5126,
      "count": 65532,
      "max": [
        0.9648460149765015,
        0.96875
      ],
      "min": [
        0.05133900046348572,
        0.014534000307321548
      ],
      "type": "VEC2"
    },
    {
      "bufferView": 0,
      "byteOffset": 3644388,
      "componentType": 5125,
      "count": 369372,
      "type": "SCALAR"
    },
    {
      "bufferView": 2,
      "byteOffset": 6291072,
      "componentType": 5126,
      "count": 65532,
      "max": [
        108.616943359375,
        -5.349606037139893,
        147.94313049316406
      ],
      "min": [
        -73.75321197509766,
        -159.2851104736328,
        -103.96146392822266
      ],
      "type": "VEC3"
    },
    {
      "bufferView": 2,
      "byteOffset": 7077456,
      "componentType": 5126,
      "count": 65532,
      "max": [
        0.9999805092811584,
        0.998449981212616,
        0.9999275207519531
      ],
      "min": [
        -0.9999749064445496,
        -0.9999809861183167,
        -0.9999594688415527
      ],
      "type": "VEC3"
    },
    {
      "bufferView": 1,
      "byteOffset": 2097024,
      "componentType": 5126,
      "count": 65532,
      "max": [
        0.8358880281448364,
        0.7455360293388367
      ],
      "min": [
        0.10639899969100952,
        0.010967000387609005
      ],
      "type": "VEC2"
    },
    {
      "bufferView": 0,
      "byteOffset": 5121876,
      "componentType": 5125,
      "count": 364593,
      "type": "SCALAR"
    },
    {
      "bufferView": 2,
      "byteOffset": 7863840,
      "componentType": 5126,
      "count": 65532,
      "max": [
        42.82741165161133,
        -18.051958084106445,
        44.44472885131836
      ],
      "min": [
        -65.95051574707031,
        -159.2851104736328,
        -96.35936737060547
      ],
      "type": "VEC3"
    },
    {
      "bufferView": 2,
      "byteOffset": 8650224,
      "componentType": 5126,
      "count": 65532,
      "max": [
        0.999995231628418,
        0.9961335062980652,
        0.9999338388442993
      ],
      "min": [
        -0.999999463558197,
        -0.9999839067459106,
        -0.9999975562095642
      ],
      "type": "VEC3"
    },
    {
      "bufferView": 1,
      "byteOffset": 2621280,
      "componentType": 5126,
      "count": 65532,
      "max": [
        0.6278250217437744,
        0.9992560148239136
      ],
      "min": [
        0.0007440000190399587,
        0.4378089904785156
      ],
      "type": "VEC2"
    },
    {
      "bufferView": 0,
      "byteOffset": 6580248,
      "componentType": 5125,
      "count": 349389,
      "type": "SCALAR"
    },
    {
      "bufferView": 2,
      "byteOffset": 9436608,
      "componentType": 5126,
      "count": 65532,
      "max": [
        99.229736328125,
        -0.08665800094604492,
        147.84852600097656
      ],
      "min": [
        -74.44035339355469,
        -159.0694580078125,
        -106.58897399902344
      ],
      "type": "VEC3"
    },
    {
      "bufferView": 2,
      "byteOffset": 10222992,
      "componentType": 5126,
      "count": 65532,
      "max": [
        0.9999521970748901,
        0.9995394349098206,
        0.9999338388442993
      ],
      "min": [
        -0.999999463558197,
        -0.9999868273735046,
        -0.9999789595603943
      ],
      "type": "VEC3"
    },
    {
      "bufferView": 1,
      "byteOffset": 3145536,
      "componentType": 5126,
      "count": 65532,
      "max": [
        0.9030809998512268,
        0.9992560148239136
      ],
      "min": [
        0.005113000050187111,
        0.3485589921474457
      ],
      "type": "VEC2"
    },
    {
      "bufferView": 0,
      "byteOffset": 7977804,
      "componentType": 5125,
      "count": 339483,
      "type": "SCALAR"
    },
    {
      "bufferView": 2,
      "byteOffset": 11009376,
      "componentType": 5126,
      "count": 65532,
      "max": [
        69.87992095947266,
        1.07111394405365,
        91.7410888671875
      ],
      "min": [
        -41.1211051940918,
        -158.9872283935547,
        -100.33917999267578
      ],
      "type": "VEC3"
    },
    {
      "bufferView": 2,
      "byteOffset": 11795760,
      "componentType": 5126,
      "count": 65532,
      "max": [
        0.999899685382843,
        0.9999926090240479,
        0.9999658465385437
      ],
      "min": [
        -0.9999969005584717,
        -0.9999930262565613,
        -0.9999641180038452
      ],
      "type": "VEC3"
    },
    {
      "bufferView": 1,
      "byteOffset": 3669792,
      "componentType": 5126,
      "count": 65532,
      "max": [
        0.8358619809150696,
        0.8891370296478271
      ],
      "min": [
        0.4836310148239136,
        0.2638770043849945
      ],
      "type": "VEC2"
    },
    {
      "bufferView": 0,
      "byteOffset": 9335736,
      "componentType": 5125,
      "count": 367986,
      "type": "SCALAR"
    },
    {
      "bufferView": 2,
      "byteOffset": 12582144,
      "componentType": 5126,
      "count": 40784,
      "max": [
        74.70524597167969,
        -1.5587120056152344,
        99.70648193359375
      ],
      "min": [
        -73.35977935791016,
        -121.8254623413086,
        -98.38404846191406
      ],
      "type": "VEC3"
    },
    {
      "bufferView": 2,
      "byteOffset": 13071552,
      "componentType": 5126,
      "count": 40784,
      "max": [
        0.9999582171440125,
        0.9971377849578857,
        0.9999833703041077
      ],
      "min": [
        -0.9999821782112122,
        -0.9997620582580566,
        -0.9961419701576233
      ],
      "type": "VEC3"
    },
    {
      "bufferView": 1,
      "byteOffset": 4194048,
      "componentType": 5126,
      "count": 40784,
      "max": [
        0.6448439955711365,
        0.8742560148239136
      ],
      "min": [
        0.32291701436042786,
        0.023020999506115913
      ],
      "type": "VEC2"
    },
    {
      "bufferView": 0,
      "byteOffset": 10807680,
      "componentType": 5125,
      "count": 225798,
      "type": "SCALAR"
    }
  ],
  "asset": {
    "extras": {
      "author": "Arkify 3D (https://sketchfab.com/arkify)",
      "license": "CC-BY-NC-4.0 (http://creativecommons.org/licenses/by-nc/4.0/)",
      "source": "https://sketchfab.com/3d-models/mens-puma-3d-scan-aecded210b344c28b6b91b9a993b421c",
      "title": "Men's Puma 3D Scan"
    },
    "generator": "Sketchfab-14.35.0",
    "version": "2.0"
  },
  "bufferViews": [
    {
      "buffer": 0,
      "byteLength": 11710872,
      "name": "floatBufferViews",
      "target": 34963
    },
    {
      "buffer": 0,
      "byteLength": 4520320,
      "byteOffset": 11710872,
      "byteStride": 8,
      "name": "floatBufferViews",
      "target": 34962
    },
    {
      "buffer": 0,
      "byteLength": 13560960,
      "byteOffset": 16231192,
      "byteStride": 12,
      "name": "floatBufferViews",
      "target": 34962
    }
  ],
  "buffers": [
    {
      "byteLength": 29792152,
      "uri": "scene.bin"
    }
  ],
  "images": [
    {
      "uri": "textures/material_0_baseColor.png"
    }
  ],
  "materials": [
    {
      "doubleSided": true,
      "name": "material_0",
      "pbrMetallicRoughness": {
        "baseColorTexture": {
          "index": 0
        },
        "metallicFactor": 0.0,
        "roughnessFactor": 0.7917918107003658
      }
    }
  ],
  "meshes": [
    {
      "name": "Object_0",
      "primitives": [
        {
          "attributes": {
            "NORMAL": 1,
            "POSITION": 0,
            "TEXCOORD_0": 2
          },
          "indices": 3,
          "material": 0,
          "mode": 4
        }
      ]
    },
    {
      "name": "Object_1",
      "primitives": [
        {
          "attributes": {
            "NORMAL": 5,
            "POSITION": 4,
            "TEXCOORD_0": 6
          },
          "indices": 7,
          "material": 0,
          "mode": 4
        }
      ]
    },
    {
      "name": "Object_2",
      "primitives": [
        {
          "attributes": {
            "NORMAL": 9,
            "POSITION": 8,
            "TEXCOORD_0": 10
          },
          "indices": 11,
          "material": 0,
          "mode": 4
        }
      ]
    },
    {
      "name": "Object_3",
      "primitives": [
        {
          "attributes": {
            "NORMAL": 13,
            "POSITION": 12,
            "TEXCOORD_0": 14
          },
          "indices": 15,
          "material": 0,
          "mode": 4
        }
      ]
    },
    {
      "name": "Object_4",
      "primitives": [
        {
          "attributes": {
            "NORMAL": 17,
            "POSITION": 16,
            "TEXCOORD_0": 18
          },
          "indices": 19,
          "material": 0,
          "mode": 4
        }
      ]
    },
    {
      "name": "Object_5",
      "primitives": [
        {
          "attributes": {
            "NORMAL": 21,
            "POSITION": 20,
            "TEXCOORD_0": 22
          },
          "indices": 23,
          "material": 0,
          "mode": 4
        }
      ]
    },
    {
      "name": "Object_6",
      "primitives": [
        {
          "attributes": {
            "NORMAL": 25,
            "POSITION": 24,
            "TEXCOORD_0": 26
          },
          "indices": 27,
          "material": 0,
          "mode": 4
        }
      ]
    },
    {
      "name": "Object_7",
      "primitives": [
        {
          "attributes": {
            "NORMAL": 29,
            "POSITION": 28,
            "TEXCOORD_0": 30
          },
          "indices": 31,
          "material": 0,
          "mode": 4
        }
      ]
    },
    {
      "name": "Object_8",
      "primitives": [
        {
          "attributes": {
            "NORMAL": 33,
            "POSITION": 32,
            "TEXCOORD_0": 34
          },
          "indices": 35,
          "material": 0,
          "mode": 4
        }
      ]
    }
  ],
  "nodes": [
    {
      "children": [
        1
      ],
      "matrix": [
        0.8537685871124268,
        0.023331243544817085,
        -0.5201296210289001,
        0.0,
        0.021708419546484947,
        -0.9997219443321228,
        -0.009210757911205514,
        0.0,
        -0.5201998949050903,
        -0.0034273364581165803,
        -0.8540376424789429,
        0.0,
        0.0,
        0.0,
        0.0,
        1.0
      ],
      "name": "Sketchfab_model"
    },
    {
      "children": [
        2,
        3,
        4,
        5,
        6,
        7,
        8,
        9,
        10
      ],
      "name": "Puma.obj.cleaner.materialmerger.gles"
    },
    {
      "mesh": 0,
      "name": "Object_2"
    },
    {
      "mesh": 1,
      "name": "Object_3"
    },
    {
      "mesh": 2,
      "name": "Object_4"
    },
    {
      "mesh": 3,
      "name": "Object_5"
    },
    {
      "mesh": 4,
      "name": "Object_6"
    },
    {
      "mesh": 5,
      "name": "Object_7"
    },
    {
      "mesh": 6,
      "name": "Object_8"
    },
    {
      "mesh": 7,
      "name": "Object_9"
    },
    {
      "mesh": 8,
      "name": "Object_10"
    }
  ],
  "samplers": [
    {
      "magFilter": 9729,
      "minFilter": 9987,
      "wrapS": 10497,
      "wrapT": 10497
    }
  ],
  "scene": 0,
  "scenes": [
    {
      "name": "Sketchfab_Scene",
      "nodes": [
        0
      ]
    }
  ],
  "textures": [
    {
      "sampler": 0,
      "source": 0
    }
  ]
}
